<mxfile host="app.diagrams.net" modified="2023-11-14T13:37:37.769Z" agent="Mozilla/5.0 (Windows NT 10.0; Win64; x64) AppleWebKit/537.36 (KHTML, like Gecko) Chrome/119.0.0.0 Safari/537.36" version="22.1.0" etag="M3DSeiET0LKLG6CWfM6Z" type="github">
  <diagram name="Page-1" id="MmGJ7BQmYdWjr4ds7I4n">
    <mxGraphModel>
      <root>
        <mxCell id="0" />
        <mxCell id="1" parent="0" />
      </root>
    </mxGraphModel>
  </diagram>
</mxfile>
